<svg xmlns="http://www.w3.org/2000/svg" viewBox="0 0 425 131"><path fill="#c80f08" d="M75.29 19.71c-3.32-.24-7.53-.03-4.07-4.92C72.94 12.36 81.5-.56 81.53 7.05q.02 5.67-.1 11.31a.99.98-5.9 0 1-.78.95q-2.71.6-5.36.4Zm-31.91 9.35.48-1.66a1.01 1.01 0 0 1 .99-.72l9.53.24a1.01 1.01 0 0 1 .98 1q.26 32.17.11 64.33c-.06 14.23-4.19 32.33-20.93 34.98-7.98 1.27-15.89-3.51-21.13-9.32a1.01 1 43.6 0 1-.04-1.3l6.04-7.46a1.01 1 38.1 0 1 1.39-.16c15.23 11.62 22.15.95 23.22-13.75q.06-.87-.44-1.53a1 1 0 0 0-1.46-.15q-6.93 6.09-16.09 3.25c-11.82-3.66-15.52-14.3-15.53-25.6-.02-13.27-3.09-32.06 9.54-41.14 4.76-3.42 13.96-5.2 19.48-1.5q1.23.83 2.66 1.18a1 1 0 0 0 1.2-.69Zm.058 20.171A10.18 10.18 0 0 0 33.24 39.07l-.96.002A10.18 10.18 0 0 0 22.118 49.27l.044 25.62A10.18 10.18 0 0 0 32.36 85.05l.96-.002A10.18 10.18 0 0 0 43.482 74.85l-.044-25.62ZM258.53 36.29l-1.43-.06a.82.79-21.6 0 1-.53-.22c-1.15-1.11 4.39-2.94 4.52.71.1 2.96-.19 7.25-4.37 7.06-5.69-.25-3.7-11.95-3.36-14.9a1.01 1-14.8 0 1 .41-.7q4.5-3.25 7.02 1.53c.34.64.35 1.9-.71 1.72a.64.63-2.8 0 1-.5-.44q-1.33-4.38-4.74-1.52a1.02 1 70.2 0 0-.35.77c0 2.56-1.69 13.79 3.64 11.69a1.07 1.04 4.4 0 0 .5-.42q1.17-1.99.85-4.36a.99.99 0 0 0-.95-.86Zm-92.01-9.12c6.28.35 4.52 10.69 3.74 14.46a1.07 1.02 77.5 0 1-.34.56q-2.96 2.51-6.94 1.33a1 1 0 0 1-.72-.96l-.01-14.24a1 1 0 0 1 .85-.99q1.75-.26 3.42-.16Zm2.647 3.15a1.73 1.73 0 0 0-1.724-1.737l-1.74-.006a1.73 1.73 0 0 0-1.736 1.724l-.034 9.94a1.73 1.73 0 0 0 1.724 1.736l1.74.006a1.73 1.73 0 0 0 1.736-1.724l.034-9.94Zm27.223 3.63q-.39-.19-.63-.56a.79.79 0 0 1 .15-1.03c1.37-1.19.87-5.65 1.94-5.21a.65.64 11.9 0 1 .39.59l.01 2.86a1 1 0 0 0 .54.89q3.08 1.6.14 2.59a1 1 0 0 0-.68.95v5.87a.99.99 0 0 0 .56.89l.99.5a.8.79-70 0 1 .42.91q-.31 1.23-2.64.04a1 .99 13.9 0 1-.54-.88l-.09-7.52a.99.99 0 0 0-.56-.89Zm31.09-2.01q2.25-.44 3.45 1.25c1.4 1.97.84 7.28.8 9.77a.8.79-89.6 0 1-.79.79h-.3a.64.64 0 0 1-.64-.64v-8a1 .98-77.1 0 0-.55-.89q-1.54-.76-2.86.37a1 1 0 0 0-.35.76l.01 7.56a.8.8 0 0 1-.8.8h-.29a.41.41 0 0 1-.41-.41V27.88a.8.8 0 0 1 .64-.78q1.27-.27.93 1.67-.21 1.19-.02 2.35a1.01 1-10.1 0 0 1.18.82Zm71.58 10.4q.99.18.64 1.05a.64.64 0 0 1-.68.39c-1.51-.21-2.48-1.19-2.49-2.79q-.07-6.74-.01-13.49a.52.52 0 0 1 .63-.5l.32.07a1.01 1.01 0 0 1 .78.98l-.01 13.3a1.01 1-84.9 0 0 .82.99Zm6.28-.37q2.85 1.29.17 1.87-2.23.48-2.24-2.16l-.03-14.23a.41.41 0 0 1 .41-.41h.3a.8.8 0 0 1 .8.8v13.22a1 .99-78.2 0 0 .59.91Zm28.08-8.21a1 .99.7 0 0-.91.88c-.12 1.01.21 10.04-1.33 9.01a1.01.99 17.2 0 1-.45-.83q.05-7.55 0-15.07 0-1.25 1.03-.82a.81.8 11.7 0 1 .49.74v3.25a1 1 0 0 0 1.13.99c5.86-.76 4.38 7.94 4.35 11.34a.52.52 0 0 1-.63.5l-.29-.07a1 .99-84.2 0 1-.78-.96c-.03-2.48 1.34-9.3-2.61-8.96Zm20.15-5.59a1.05 1.01 82.9 0 1 .38-.51q1.81-1.28 2.35-.31a.64.64 0 0 1-.31.9q-1.88.78-1.46 2.79a.98.98 0 0 0 .52.67q2.28 1.2-.02 2.41a1.02 1.01-14.5 0 0-.53.89v8.1a.64.64 0 0 1-.63.64h-.33a.52.51 88.9 0 1-.52-.51c-.01-1.88.45-8.37-.66-9.57a.99.98-58.1 0 1-.22-.98l1.43-4.52Zm6.19 3.11-.02-3.48q0-1.57 1.1-.45 1.01 1.03.28 3.08a.99.99 0 0 0 .84 1.33q1.44.14 1.41 1.08a1.01.99-6.1 0 1-.77.94c-2.11.51-1.37 5.37-1.33 7.02a1 1 0 0 0 .44.81l1.06.72q2.15 1.46-.44 1.47-.9 0-1.95-.72a1 .99-74.5 0 1-.44-.79l-.25-7.64a1 1 0 0 0-.57-.87q-1.67-.8.05-1.58a1.01 1.01 0 0 0 .59-.92Z"/><rect width="11.66" height="70.44" x="-5.83" y="-35.22" fill="#c80f08" rx="1.44" transform="rotate(-.1 35819.045 -43330.21)"/><path fill="#c80f08" d="M138.75 86.66v9.67a1.42 1.42 0 0 1-1.42 1.42H96.16a1.42 1.42 0 0 1-1.29-2.01l25.08-54.48a1.42 1.42 0 0 0-1.29-2.01h-21a1.42 1.42 0 0 1-1.42-1.43l.04-9.16a1.42 1.42 0 0 1 1.42-1.41h39.52a1.42 1.42 0 0 1 1.29 2.01l-24.64 54a1.42 1.42 0 0 0 1.29 2.01l22.17-.03a1.42 1.42 0 0 1 1.42 1.42Zm37.65-47.49c-1.22 2.58 2.52 4.33 3.38 1.93a.99.98-85.4 0 1 .76-.65c2.41-.44-1.3 6.27-4.91 2.25-1.48-1.64-1.41-5.68-1.09-7.38 1.1-6 8.41-3.69 6.86 2.58a1.02 1.01-82.3 0 1-.99.76l-3.09-.06a1 .99 12.7 0 0-.92.57Zm2.46-5.28q-2.41-.4-2.58 1.71a1.02 1-80.2 0 0 .73 1.05q4.28 1.18 2.58-2.22a1.03 1.02-8.3 0 0-.73-.54Zm8.83 8.13 1.95-.29a1 1 0 0 0 .85-.99c0-.85-.54-9.67.92-8.89a.65.64-76.3 0 1 .34.57v10.26a1 1 0 0 1-.98 1l-3.53.08q-2.31.06-2.24-2.77c.03-1-.85-9.83 1.07-9.08a.65.63-80.7 0 1 .41.59l.06 8.54a1 1 0 0 0 1.15.98Zm18.41-.12q1.8.61 2.95-.82a1.01 1.01 0 0 0 .05-1.2l-.58-.84a1.01 1-14 0 0-.72-.43q-3.21-.31-4.34-3.25a1.01.98 48.8 0 1 .04-.81c2.38-4.7 7.83-1.88 6.71-.43a.81.8-61.8 0 1-.89.27c-1.11-.37-4.36-1.07-4.09 1.02a1.01 1-86.6 0 0 .74.84c9.52 2.52 2.56 11.34-2.5 5.91a1.01 1-60.4 0 1-.24-.89q.54-2.65 2.34.22a.99.98-7 0 0 .53.41Zm12.43-7.89q-2.07-.7-2.85 1.42-.06.17-.06.36l.03 4.52a1.03.94 29.8 0 0 .18.56q2.22 3.23 3.77-.73c.58-1.47 1.57-.63 1.38.51q-.76 4.65-5.96 2.54a1 .97 4.5 0 1-.59-.67q-1.1-4.09-.35-7.26c1.07-4.55 5.72-4.71 6.98.41a.63.63 0 0 1-.51.78q-1.2.2-1.35-1.57a1 .99-82.9 0 0-.67-.87Zm21.8 7.44q.44-.99 1.14-.95 1.52.1.58 1.3-3.42 4.32-6.68-.29a1.05 1.01 29.8 0 1-.18-.61c.13-3.4-1.06-8.61 3.87-9.14a1.08 1.08 0 0 1 .62.13q3.46 2.05 2.47 6.03a1.01 1-81.8 0 1-1.01.76l-3.12-.1a1 .99-86.3 0 0-1.02.9q-.31 3 2.57 2.55a.99.99 0 0 0 .76-.58Zm-2.56-4.73c7.29 1.92-.17-6.68-.74-1.07a1 .99-80 0 0 .74 1.07Zm31.13 5.36c1-.49 2.71-3.68 2.85.1a.99.99 0 0 1-.65.97c-6.91 2.59-7.61-5.05-5.93-8.97 1.42-3.31 5.29-3.04 6.41.24q.53 1.56.29 3.2a1 .99 3.1 0 1-.95.85l-3.47.14a1 1 0 0 0-.93.76q-.53 2.21 1.69 2.78a1.03 1.01 38.7 0 0 .69-.07Zm-2.36-6.74q-.03.13-.05.26a1 1 0 0 0 .99 1.15h1.67a1 .99 83.4 0 0 .97-1.23q-.7-2.97-3.12-.87-.36.31-.46.69Zm11.33.94c6.58 1.27 6.47 8.93-1.83 7.16a1.02 1 88.5 0 1-.76-.73q-.76-2.88.81-2.55a.81.81 0 0 1 .59.5c.99 2.68 5.18 1.24 4.09-1.11a1 .98 89 0 0-.51-.5l-4.79-2.06a1 .99-71.5 0 1-.57-1.16q1.53-6.06 6.65-3.03.53.31.55.79a.64.64 0 0 1-.7.67l-3.23-.3a1 1 0 0 0-1.09.92l-.02.34a1 1 0 0 0 .81 1.06Zm9.52-3.76c3.78-2.62 6.08 2.38 5.08 5.41a.99.98-80 0 1-.96.68l-3.19-.05a1 .99 15.2 0 0-.88.5c-1.04 1.83 2.27 5.18 3.81 1.53q.35-.84.88-.1l.23.32a1 1 0 0 1-.04 1.23c-6.05 7.23-8.91-6.76-4.93-9.52Zm-.01 2.68q-1.06 1.56.83 1.56l2.19-.01q1.88 0 .82-1.56-1.91-2.83-3.84.01Zm27.66 4.25q-1.65-1.19-3.68-1.63a1.03.99 79.6 0 1-.65-.47q-2.77-4.64 3.16-5.78a1.04 1.02 57.2 0 1 .79.18q2.53 1.88 1.27 2.59a.64.63-44.2 0 1-.63 0q-1.84-1.03-3.63.08-2.1 1.3.31 1.83c11.27 2.47.66 12.23-2.44 5.08q-.9-2.08 1.11-1.02.56.29.89 1.05a1 .98 1 0 0 .5.51q2.29 1.02 3.32-1.18a1.01 1.01 0 0 0-.32-1.24Zm9.48 2.81a1 .99 84.5 0 0 .93-1.14q-.16-1.15.59-1.65 1.45-.96 1.24.76-.56 4.47-5.83 3.31a1 .98 89.4 0 1-.76-.76q-1.04-4.62.04-9.07a1 .98-12.9 0 1 .34-.53q3.69-3.08 5.87.89c.53.97.21 4.38-1.15 1.6-3.4-6.93-6.96 6.89-1.27 6.59Zm19.24-10.51a1.02 1-51.8 0 1 .71-.09c5 1.22 3.29 6.11 3.67 9.73a1.04 1.02 20.2 0 0 .28.59c2.84 2.93-.82 1.41-1.42 1.49q-2.11.27-4.25.11a1 .98-10.9 0 1-.82-.54q-2.9-5.72 3.92-6.47 1.8-.2.67-1.62-1.91-2.39-3.54-.04-1.24 1.8-1.45-.38-.14-1.51 2.23-2.78Zm-1.23 8.88q.74 1.99 2.97 1.34a1 1 0 0 0 .7-.76q1.02-4.98-3.33-1.73a.99.98-28.8 0 0-.34 1.15ZM164.72 61.57c-.12 1.04.38 10.38-1.59 9.16a.82.8 16.5 0 1-.38-.68v-8.51a1.01 1-75 0 0-.5-.87q-1.57-.91.04-1.85a.98.98 0 0 0 .47-1.03q-.52-2.96 2.44-3.96a1.06 1.04-43 0 1 .69.02c1.92.76-2.05 1.94-1.33 4.19a1.04 1.03 2 0 0 .58.62q2.59 1.05.17 2.11a.99.98-8.9 0 0-.59.8Zm5.76-5.91q-.78-.61.02-1.42.96-.97 1.26.65.38 2.07-1.28.77Z"/><ellipse fill="#c80f08" rx="1.1" ry=".94" transform="rotate(75.8 52.175 139.661)"/><path fill="#c80f08" d="M215.82 68.93q1.49.28 1.06 1.55a.81.81 0 0 1-1.11.46c-3.33-1.6-2.58-5.39-2.51-9.37a.99.98 23.5 0 0-.29-.72l-.28-.29a.79.79 0 0 1-.1-1c.86-1.3.61-7.15 2.27-5.34a1.01.98 33.1 0 1 .22.97q-.79 2.59 1.03 3.74a1.01 1-48.2 0 1 .09 1.63l-.83.66a1.01 1 70.7 0 0-.37.78v5.95a1 1 0 0 0 .82.98Zm47.57-.04q1.29.58.95 1.59a.65.64-68.7 0 1-.86.38c-3.58-1.53-2.38-6.24-2.55-9.29a1.01.99-76.6 0 0-.49-.81q-1.77-1.04.02-1.97a1 1 0 0 0 .54-.89v-2.96a1.06 1.01-27.7 0 1 .21-.62c1.93-2.47 1.55 3.25 1.6 3.65a1.01.98 9.8 0 0 .57.79q2.3 1.07-.05 2.08a1 .99 78.2 0 0-.6.93l.07 6.22a.99.98 12 0 0 .59.9ZM268 54.2q1.67-.92 1.55.54-.12 1.46-1.29.57l-.33-.25a.52.51-40.5 0 1 .07-.86Zm38.65-.24c2.29-1.96 1.14 12.33 1.08 13.12-.09 1.18.37 1.79 1.28 2.37a1.02 1.01 18.6 0 1 .47.94l-.03.25a.41.41 0 0 1-.51.36c-1.56-.39-2.6-1.31-2.65-3.04q-.2-6.77.14-13.54a.64.63 71.1 0 1 .22-.46Z"/><rect width="1.24" height="16.88" x="-.62" y="-8.44" fill="#c80f08" rx=".6" transform="rotate(.1 -35677.04 112829.392)"/><path fill="#c80f08" d="M172.04 69.14c4.31.88 2.98-7.21 2.98-9.72a.65.63 77.8 0 1 .36-.58c.75-.36 1.05.18 1.07.83q.22 5.02-.16 10.02a1 1 0 0 1-.99.92q-.6 0-1.36.16c-3.52.73-4.59-1.94-4.68-4.98-.05-1.57-.57-9.27 1.76-6.53a1.04 1.01-65.4 0 1 .23.65l-.01 8.25a1 1 0 0 0 .8.98Zm12.95-9.84q1.64 3.71-1.9 1.14-1.59-1.15-1.59.81v9.18a.51.51 0 0 1-.72.46c-.91-.41-.51-9.69-.47-11.1a1.01 1 89.7 0 1 .96-.98l2.76-.11a1.01 1 76.6 0 1 .96.6Zm18.76 2.58c-.04.35-.07 9.5-1.02 9.09a.81.8-78.3 0 1-.48-.74v-10.3a1.01 1 3.6 0 1 1.13-.99q1.02.13 2.17-.31 2.53-.97 3.06 2.62c.22 1.49 1.26 9.6-.73 9.66a.64.64 0 0 1-.66-.65l.11-8.08a.98.93-64.9 0 0-.21-.63q-1.1-1.4-2.86-.44a.99.98-11.6 0 0-.51.77Zm17.92 5.01q.56 3.93 4.16 1.03a.5.5 0 0 1 .54-.07c1.62.78-2.06 4.83-4.84 2.22-1.96-1.84-1.27-5.47-1.35-8.08a1.09 1.05-30 0 1 .16-.56c3.96-6.26 8.55.58 6.45 3.86a1 .98 15.9 0 1-.84.46h-3.29a1 1 0 0 0-.99 1.14Zm2.07-6.21q-1.97.61-2.14 2.47a1.01 1 6.3 0 0 .87 1.08q4.84.63 2.41-3.14a1.01.99 64.4 0 0-1.14-.41Zm11.33-1.56q2.05 2.86-1.22 1.72a1 1 0 0 0-1.32.84q-.31 2.83-.2 8.04.03 1.36-.9 1.22a.81.8 4.7 0 1-.68-.79V59.99a1 1 0 0 1 .89-.99l2.5-.29a1.01.99 68.2 0 1 .93.41Zm8.51 1.88c-4.17-2.3-3.41 5.54-3.31 8.51.03.75-.17 2.4-1.31.92a1 .99 26.3 0 1-.21-.61v-9.61a1 1 0 0 1 .66-.94q6.22-2.27 6.61 4.72c.1 1.6.27 7.71-1.34 6.92a.66.65 13.4 0 1-.35-.56l-.23-8.5a1.02 1.01 13.7 0 0-.52-.85Zm10.75.79-.64-.87a1.01 1-38.5 0 0-1.47-.16l-1.41 1.25a.99.97-61.3 0 1-.78.24l-.34-.04a.41.41 0 0 1-.31-.61q2.74-4.75 5.52-1.8c2.01 2.13 1.4 5.59 1.33 8.39a1.01 1 16.1 0 0 .49.88q.84.51.7 1.35a.64.64 0 0 1-.99.42q-1.62-1.1-3.26 0a1.02.98-54.4 0 1-.79.15c-6.32-1.52-2.84-6.48 1.4-7.64a1.01 1-25.7 0 0 .55-1.56Zm-3.73 6.9q4.82 1.63 3.9-2.65a1.01 1-12.6 0 0-1.22-.77q-1.71.43-3.06 1.76a1 1 0 0 0 .38 1.66Z"/><rect width="1.44" height="12.06" x="-.72" y="-6.03" fill="#c80f08" rx=".7" transform="rotate(.4 -9151.786 38532.158)"/><path fill="#c80f08" d="M277.017 71.15a6.29 3.61 90.3 0 1-3.577-6.309 6.29 3.61 90.3 0 1 3.643-6.27 6.29 3.61 90.3 0 1 3.577 6.308 6.29 3.61 90.3 0 1-3.643 6.27Zm1.94-9.023a1.32 1.32 0 0 0-1.337-1.304l-1.18.014a1.32 1.32 0 0 0-1.304 1.336l.068 5.52a1.32 1.32 0 0 0 1.336 1.304l1.18-.014a1.32 1.32 0 0 0 1.304-1.337l-.068-5.52Z"/><path fill="#c80f08" d="M286.46 61.5c-.35 1.56-.04 9.53-1.64 9.37a.64.63 3 0 1-.57-.63V59.89a1 .99 89.7 0 1 .98-1l3.71-.07q2.26-.04 2.28 2.75l.04 8.57a.79.79 0 0 1-.65.79c-2.8.52 1.17-12.33-3.59-10.12a1.02 1.01-6.2 0 0-.56.69Zm10.94-.52c-4.91 4.52-.92-5.52 2.94-1.37 1.72 1.85 1.25 5.89 1.18 8.3a1.01.97-66 0 0 .25.69q2.76 3.11-.98 1.82a1.04 1.03 43.1 0 0-.71.02q-3.66 1.52-5.38-1.94-1.35-2.72 1.1-3.73l3.59-1.49a.99.99 0 0 0 .62-.95q-.04-1.63-1.94-1.61a1 .97 22.9 0 0-.67.26Zm-1.21 6.31q.36 2.36 2.71 1.88a1.02 1.01 1.4 0 0 .77-.73q1.44-5.54-3.09-2.09a1 .98-23.2 0 0-.39.94Zm18.32-.55q-.06 4.23 3.79 1.28.82-.63 1.22-.06a.63.62 45.5 0 1 0 .75c-3.35 4.62-6.7 1.57-6.84-2.65-.36-10.82 8.81-8.15 6.94-1.06a.99.99 0 0 1-.96.75h-3.15a1 1 0 0 0-1 .99Zm2.72-5.76q-3.26-.92-2.77 2.39a1.01.99 1.3 0 0 .82.84q4.66.81 2.54-2.77a.99.98-6.8 0 0-.59-.46Zm4.36 18.93a.99.99 0 0 1 1.07-.52c2.13.42-.21 1.79-.61 2.62q-4.4 9.26 1.18 17.9c.65 1-.71.61-.96.39q-1.59-1.4-2.5-4.77-2.15-7.99 1.82-15.62Zm33.77 19.64c3.25-6.5 3.42-12.63.2-19.14a.64.64 0 0 1 .61-.92q.51.03.87.71 5.28 9.89-.22 19.41c-.22.39-1.27 1.38-1.51.52a.81.75 52.4 0 1 .05-.58Zm-190.53-3.24 4.17-.1a.51.51 0 0 1 .51.62l-.08.38a1 1 0 0 1-.98.79h-6.13a1 1 0 0 1-.91-1.41l5.69-12.43a1 1 0 0 0-.91-1.41h-3.36a.98.97-20.1 0 1-.74-.34c-2.23-2.5 5.82-1.64 6.53-1.64a1 1 0 0 1 .9 1.41l-5.63 12.73a1 1 0 0 0 .94 1.4Zm116.66-10.04q3.17-.78 4.24 2.97 1.35 4.78-1.65 8.38a1.02.97-68 0 1-.8.36l-3.3-.11a1 1 0 0 1-.97-1.01q.08-7.62-.01-15.17c-.01-.59.26-1.21.94-.92a.51.51 0 0 1 .31.47v4.06a1 1 0 0 0 1.24.97Zm2.788 3.287a1.82 1.82 0 0 0-1.813-1.826l-.36-.002a1.82 1.82 0 0 0-1.827 1.814l-.016 4.84a1.82 1.82 0 0 0 1.813 1.826l.36.002a1.82 1.82 0 0 0 1.827-1.814l.016-4.84Z"/><ellipse fill="#c80f08" rx="1.25" ry=".85" transform="rotate(90.4 109.745 190.353)"/><path fill="#c80f08" d="M306.81 88.92a1 1 0 0 0-.72-1.02q-2.45-.69.07-1.81a1 .99 78.2 0 0 .59-.91v-3.63a.81.78 80.1 0 1 .51-.75c1.62-.61 1.26 2.94 1.24 4.3a1.02 1.01 12.3 0 0 .61.94q1.96.84-.05 1.82a1 .99 77.3 0 0-.56.9v6.25a1 .97-73.4 0 0 .43.82l.65.45a1 .98-72.6 0 1 .43.84q-.03 1.64-2.48.43a.99.97-80 0 1-.55-.8q-.4-3.91-.17-7.83Zm24.67 1.64q-1.52.36-1.7-.93a1 .99-4 0 1 .99-1.13h2.42a1.02 1 81.4 0 1 .96.72q.79 2.67.05 5.21c-.98 3.33-5.14 5.33-7.33 1.8-1.74-2.81-1.92-12.02.73-14.44 2.56-2.36 5.71-.55 6.55 2.42a1.03 1-41.8 0 1-.05.69q-.78 1.75-1.33-.24c-1.08-3.92-5.25-2.22-5.27 1.51 0 1.96-.53 7.84.68 9.23 2.66 3.07 5.2-1.55 4.49-4.13a1 1 0 0 0-1.19-.71Z"/><rect width="1.72" height="17.2" x="-.86" y="-8.6" fill="#c80f08" rx=".66" transform="rotate(.4 -12635.855 48659.971)"/><path fill="#c80f08" d="M349.58 84.15a1 1 0 0 0-.88-1.4q-1.27-.05-2.68-.09-2.08-.06-1.32-1.4a.99.98 14.4 0 1 .86-.5l5.71-.03a1 .99-78 0 1 .91 1.41l-5.71 12.7a1.01 1-77.8 0 0 .91 1.42l3.6-.01a1 1 0 0 1 1 1.06l-.02.3a.42.42 0 0 1-.41.39l-6.5.01a1 1 0 0 1-.91-1.4l5.44-12.46Zm23.87 6.41q-1.06.14-1.8-.46-1.52-1.25.44-1.42l2.55-.21a1.01 1-2.9 0 1 1.09.98c.03 2.06.62 4.74-.31 6.46-2.16 4-7.41 1.66-7.6-1.98q-.37-7.49.07-9.22c1.22-4.86 7.43-5.69 8.06-.15a1.04 1.03-30.2 0 1-.19.71c-1.2 1.62-2.03-5.97-6.03-1.24a1.04 1.01 65.4 0 0-.23.65v9.35a1.02.97-63.2 0 0 .17.56c2.05 3.01 5.03 1.43 5.02-1.53q-.01-.82-.11-1.64a1.01 1-7.4 0 0-1.13-.86Zm25.46-4.39q3.66-.61 4.49 3.61.92 4.66-1.79 7.86a1 .98 20.8 0 1-.8.35l-3.22-.14a.99.99 0 0 1-.95-.98q-.11-7.59-.13-15.17c0-.64.26-1.25 1-.91a.5.5 0 0 1 .29.47l-.05 3.91a1 1 0 0 0 1.16 1Zm2.895 3.32a1.86 1.86 0 0 0-1.84-1.879l-.22-.002a1.86 1.86 0 0 0-1.88 1.84l-.05 4.9a1.86 1.86 0 0 0 1.84 1.88l.22.002a1.86 1.86 0 0 0 1.88-1.84l.05-4.9Zm11.325.82-3.11-.08a1 1 0 0 0-1.02 1v5.85a1.02.99-24.8 0 1-.26.67c-.8.89-1.24-.28-1.24-.93q-.01-7.71.02-15.42a.63.63 0 0 1 .36-.57c.81-.39 1.18.44 1.13 1.11q-.21 2.75.17 5.47a1 1 0 0 0 .98.86l2.91.04a1 1 0 0 0 1.02-1.04q-.11-2.49-.11-4.83c0-2.28 2.12-2.26 2.03-.08q-.3 6.81.08 13.62.16 2.94-1.7 1.68a1 .99-71.8 0 1-.43-.86l.15-5.47a1 1 0 0 0-.98-1.02ZM175 96.06c4.59 1.33 3.28-6.74 3.27-9.18a1.01.95 66.6 0 1 .23-.64q.85-1.03 1.18.58.53 2.5-.16 10.15a1 .99-88 0 1-.96.91l-3.13.1a1.04 1.01-28.3 0 1-.6-.17c-3.07-2.11-2.45-6.47-2.3-10.59a1.01 1 82 0 1 .68-.91l.35-.12a.51.51 0 0 1 .68.48l.04 8.43a1 1 0 0 0 .72.96Zm12.07.23q2.32-.41 1.73-2.77a1 .99-87.2 0 0-.62-.69l-3.63-1.35q-2.49-.93-1-3.18 2.26-3.42 5.78-1.64c1.28.65 1.18 2.17-.76 1.52q-3.06-1.02-3.24 1.3a1.01.99-79 0 0 .68 1.03l3.45 1.12a1.01 1 87.1 0 1 .6.55q1.26 2.85-.44 4.66c-3.05 3.23-7.55-1.17-5.95-2.42a.64.64 0 0 1 .83.03l1.71 1.59a1.01 1 60.9 0 0 .86.25Zm9.86-8.52c-.6.31-2.89 2.69-2.78.61a.97.97 0 0 1 .27-.62q3.49-3.77 6.18.55a1.07.99 31.4 0 1 .15.53v6.48a1.01 1 7.5 0 0 .75.97q.92.24.64 1.17a.81.8 21.1 0 1-1.12.49l-.98-.47a1 .99-47.6 0 0-.96.05c-3.98 2.44-7.74-4.06-3.4-6.1 1.26-.59 6.02-.75 2.32-3.57a1 .99 49.5 0 0-1.07-.09Zm1.2 4.49q-2.26.01-2.7 2.17a.99.97 34.8 0 0 .14.73c1.82 2.87 4.55-.22 3.45-2.36a1 1 0 0 0-.89-.54Zm9.33-3.61q-.3 3.03-.14 8.11.04 1.25-.99 1.28a.79.79 0 0 1-.83-.79v-9.97a1 1 0 0 1 .72-.96q2.7-.8 5 .62a1 1 0 0 0 1.06 0c3.94-2.51 5.55.49 5.49 4.02-.02.79.61 7.91-1.15 6.95a.64.63 12.9 0 1-.33-.52c-.12-2.2 1.6-11.56-3.15-9.34a1 1 0 0 0-.57.87l-.32 8.51a.64.63 87.4 0 1-.55.61c-1.47.2-.97-7.81-.97-9.02a1 1 0 0 0-.79-.98l-1.28-.27a1 1 0 0 0-1.2.88Zm23.55-.92-1.77.46a1.01.99-11.5 0 0-.74 1.1c.19 1.47.87 9.98-.84 8.75a1.01 1-72 0 1-.41-.81v-7.76a1 1 0 0 0-.24-.65q-1.87-2.19-3.32-.43c-1.65 1.99.27 9.73-1.39 9.67a.8.79 1.5 0 1-.77-.8l.07-9.87a1.01 1 87.1 0 1 .89-.99l3.02-.32a.98.95-31.1 0 1 .64.15q1.84 1.17 3.84-.14a1.05 1.04 29.7 0 1 .59-.16c4.47.18 3.64 7.19 3.34 11.11a1.05 1.02-23 0 1-.24.57c-1.68 1.99-1.33-8.28-1.43-9.03a1 1 0 0 0-1.24-.85Zm8.24 6.27q.71 3.52 3.4 1.49 2.49-1.87 1.21.97-1.04 2.33-4.1 1.31a1.05 1.01-7.1 0 1-.51-.38q-2.06-2.99-1.39-7.61c.96-6.7 8.38-3.48 6.65 2.24a1 1 0 0 1-.93.71l-3.37.08a1 1 0 0 0-.96 1.19Zm2.3-6.07q-2.44-.15-2.28 2.12a1.01 1 .4 0 0 .93.93l2.38.17a1 1 0 0 0 1.01-1.34q-.64-1.79-2.04-1.88Zm7.73-1.49q1.04.3 1.96-.32a1.02 1-56.8 0 1 .74-.16c5.41 1.03 3.28 12.52 2.15 11.97a.65.65 0 0 1-.36-.58c0-1.55 1.13-12.5-3.36-9.14a1 1 0 0 0-.4.8c-.01 1.06.87 10.32-1.55 8.77a1.02 1 16.9 0 1-.46-.84V87.4a1 1 0 0 1 1.28-.96Zm10.17 1.19q3.24-3.65 5.9.68a.99.97 29.5 0 1 .15.52v6.4a1 .99-74.4 0 0 .47.85l.31.19a1.02 1.01-65.6 0 1 .43 1.15q-.38 1.22-1.76.2a1 1 0 0 0-1.02-.11c-5.58 2.59-7.97-6.1-1.65-6.61q2.51-.2 1.42-2.44a.99.99 0 0 0-.46-.46q-1.72-.82-2.68.58a1 1 0 0 1-.81.44c-1.11.01-.76-.88-.3-1.39Zm4.01 8.2q1.9-5.7-2.75-2.72a1.04 1.01-10.9 0 0-.44.63q-.47 2.16 2.01 2.75a1 1 0 0 0 1.18-.66Zm8.34-6.76q-.11 3.98-.03 7.99a.99.98-16.5 0 1-.48.88c-2.08 1.25-1.29-9.63-1.28-10.61a1 1 0 0 1 .68-.95q2.32-.77 4.27.37a1.01 1.01 0 0 1 .48 1.03c-.36 2.15-3.55-2.19-3.64 1.29Zm19.3 4.6q-.18 2.23 2.04 2.6a.99.98-67.6 0 0 .98-.41q2-2.85 1.89.07a1.01.98-20.5 0 1-.34.72c-6.68 5.88-9.01-8.81-2.96-10.77a1 .99-41.4 0 1 .72.04q3.92 1.74 2.92 6.06a1 1 0 0 1-.97.77h-3.28a1 1 0 0 0-1 .92Zm4.1-4.23c-3.41-5.35-7.09 3.28-.57 1.5a.99.99 0 0 0 .57-1.5Z"/><rect width="1.52" height="11.88" x="-.76" y="-5.94" fill="#c80f08" rx=".66" transform="rotate(-.1 52873.953 -172288.192)"/><path fill="#c80f08" d="M389.92 87.83c-5.81-2.16-1.01 11.39-3.9 10.1a.8.79 11.9 0 1-.48-.73l.03-8.2a1.01 1 8.6 0 0-.71-.96q-3.32-1.04-3.34 1.46c-.01.78.56 9.35-.97 8.41a.65.64-74.1 0 1-.3-.55V87.4a1 1 0 0 1 .76-.97q2.63-.66 5.07.33a1.02 1.02 0 0 0 .83-.03c7.09-3.56 5.62 7.37 5.56 10.45a.81.8 84.7 0 1-.64.78c-.92.18-1.14-8.73-1.28-9.39a1 .98-85.8 0 0-.63-.74Z"/></svg>